<?xml version="1.0" standalone="no"?>
<!DOCTYPE svg PUBLIC "-//W3C//DTD SVG 20010904//EN"
 "http://www.w3.org/TR/2001/REC-SVG-20010904/DTD/svg10.dtd">
<svg version="1.0" xmlns="http://www.w3.org/2000/svg"
 width="512.000000pt" height="512.000000pt" viewBox="0 0 512.000000 512.000000"
 preserveAspectRatio="xMidYMid meet">
<metadata>
Created by potrace 1.14, written by Peter Selinger 2001-2017
</metadata>
<g transform="translate(0.000000,512.000000) scale(0.100000,-0.100000)"
fill="#000000" stroke="none">
<path d="M2545 5005 c-995 -45 -1851 -85 -1901 -88 -182 -12 -328 -81 -456
-215 -57 -60 -87 -102 -117 -164 -76 -159 -72 -39 -69 -1943 3 -1911 -4 -1724
79 -1886 92 -176 273 -313 464 -348 86 -17 3505 -301 3611 -301 108 0 182 18
289 69 179 85 310 244 360 436 11 42 53 631 140 1935 69 1031 125 1900 125
1931 0 77 -33 200 -77 289 -28 55 -60 97 -123 161 -129 129 -262 191 -440 202
-41 3 -889 -32 -1885 -78z m-485 -1845 l0 -100 100 0 100 0 0 -100 0 -100 100
0 100 0 0 -500 0 -500 -200 0 -200 0 0 200 0 200 -300 0 -300 0 0 -200 0 -200
-200 0 -200 0 0 500 0 500 100 0 100 0 0 100 0 100 100 0 100 0 0 100 0 100
300 0 300 0 0 -100z m1000 0 l0 -100 100 0 100 0 0 -100 0 -100 100 0 100 0 0
-100 0 -100 100 0 100 0 0 300 0 300 200 0 200 0 0 -700 0 -700 -200 0 -200 0
0 200 0 200 -100 0 -100 0 0 100 0 100 -100 0 -100 0 0 100 0 100 -100 0 -100
0 0 -400 0 -400 -200 0 -200 0 0 700 0 700 200 0 200 0 0 -100z"/>
<path d="M1660 2960 l0 -100 -100 0 -100 0 0 -200 0 -200 300 0 300 0 0 200 0
200 -100 0 -100 0 0 100 0 100 -100 0 -100 0 0 -100z"/>
</g>
</svg>
